<?xml version="1.0" encoding="UTF-8"?>
<svg
  xmlns="http://www.w3.org/2000/svg"
  version="1.1"
  viewBox="0 0 48.1 38.8"
  fill="currentColor"
  role="img"
  aria-label="RUCKUS Dog Icon"
>
  <polygon points="34.2 18.2 46.2 18.2 43.2 22.3 33.1 23.2 31 29.6 30.8 29.6 7.1 23.9 12.8 16.9 14.1 18.7 19.7 20.5 26.9 8.7 18.7 17.2 15.6 16.3 11.5 11.5 13.7 6.6 22.2 2.9 29.9 1.2 34.7 4.5 45.7 0 47.9 2.3 48.1 7.9 34.2 18.2"/>
  <line x1="27.4" y1="3.1" x2="27.4" y2="3.1"/>
  <polygon points="32.1 32.2 30.5 38.8 0 31.6 3 25.3 5.5 25.8 30.3 31.8 32.1 32.2"/>
  <g>
    <path d="M34.6,37.8v-2.3h-.9v-.3h2.2v.3h-.9v2.3h-.4Z"/>
    <path d="M36.2,37.8v-2.7h.3l1.2,2h-.2l1.2-2h.3v2.7s-.4,0-.4,0v-2.1s0,0,0,0l-1,1.8h-.2l-1.1-1.8h0v2.1h-.4Z"/>
  </g>
</svg>

